<svg
  xmlns="http://www.w3.org/2000/svg"
  xmlns:xlink="http://www.w3.org/1999/xlink"
  viewBox="0 0 32 32"
>
  <defs>
    <style>
      .cls-1,
      .cls-2 {
        fill: none;
      }
      .cls-2 {
        stroke: #fff;
        stroke-miterlimit: 10;
        stroke-width: 2px;
      }
      .cls-3 {
        fill: #fbb03b;
      }
      .cls-4 {
        fill: #f7931e;
      }
      .cls-5 {
        clip-path: url(#clip-path);
      }
      .cls-6 {
        fill: #ed1c24;
      }
    </style>
    <clipPath id="clip-path">
      <path
        id="Shape"
        class="cls-1"
        d="M26.74,21.45,6.09,24.36,18.64,7.71a20.46,20.46,0,0,1,5.42,6.06A20.75,20.75,0,0,1,26.74,21.45Z"
      />
    </clipPath>
  </defs>
  <title>Small</title>
  <g id="Small">
    <g id="Pizza-3" data-name="Pizza">
      <path
        class="cls-2"
        d="M24.06,13.77a20.58,20.58,0,0,0-5.42-6.06L6.09,24.36l20.65-2.91A20.75,20.75,0,0,0,24.06,13.77Z"
      />
      <path
        id="Shape-2"
        data-name="Shape"
        class="cls-3"
        d="M26.74,21.45,6.09,24.36,18.64,7.71a20.46,20.46,0,0,1,5.42,6.06A20.75,20.75,0,0,1,26.74,21.45Z"
      />
      <g id="Crust">
        <path
          class="cls-4"
          d="M21.83,15.41a20.82,20.82,0,0,1,2.44,6.39l2.47-.35a20.75,20.75,0,0,0-2.68-7.68,20.46,20.46,0,0,0-5.42-6.06L17,9.85A20.55,20.55,0,0,1,21.83,15.41Z"
        />
      </g>
      <g class="cls-5">
        <circle class="cls-6" cx="17.68" cy="15.41" r="2" />
        <circle class="cls-6" cx="19.9" cy="21.75" r="2" />
        <circle class="cls-6" cx="9.1" cy="20.61" r="2" />
        <circle class="cls-6" cx="14.32" cy="19.88" r="2" />
      </g>
    </g>
  </g>
</svg>
