<svg
  id="Large"
  xmlns="http://www.w3.org/2000/svg"
  xmlns:xlink="http://www.w3.org/1999/xlink"
  viewBox="0 0 96 48"
>
  <defs>
    <style>
      .cls-1,
      .cls-5 {
        fill: none;
      }
      .cls-2 {
        fill: #ed1c24;
      }
      .cls-3 {
        fill: #e6e6e6;
      }
      .cls-4 {
        fill: #009245;
      }
      .cls-5 {
        stroke: #fff;
        stroke-miterlimit: 10;
        stroke-width: 2px;
      }
      .cls-6 {
        fill: #fbb03b;
      }
      .cls-7 {
        fill: #f7931e;
      }
      .cls-8 {
        clip-path: url(#clip-path);
      }
      .cls-9 {
        font-size: 8px;
        font-family: OpenSans-Bold, Open Sans;
        font-weight: 700;
      }
    </style>
    <clipPath id="clip-path">
      <path
        id="Shape"
        class="cls-1"
        d="M37.51,30.57,11.85,34.18l15.6-20.69A25.89,25.89,0,0,1,37.51,30.57Z"
      />
    </clipPath>
  </defs>
  <title>Large</title>
  <g id="Flag">
    <g id="Red">
      <path
        class="cls-2"
        d="M39,35a19.38,19.38,0,0,0-10-.89v-20A19.38,19.38,0,0,1,39,15Z"
      />
    </g>
    <g id="White">
      <path
        class="cls-3"
        d="M29,34.11c-3.33.45-6.67,1.33-10,1.78v-20c3.33-.45,6.67-1.33,10-1.78Z"
      />
    </g>
    <g id="Green">
      <path
        class="cls-4"
        d="M19,35.89A19.38,19.38,0,0,1,9,35V15a19.38,19.38,0,0,0,10,.89Z"
      />
    </g>
  </g>
  <g id="Pizza">
    <path
      class="cls-5"
      d="M34.18,21a25.51,25.51,0,0,0-6.73-7.54L11.85,34.18l25.66-3.61A25.68,25.68,0,0,0,34.18,21Z"
    />
    <path
      id="Shape-2"
      data-name="Shape"
      class="cls-6"
      d="M37.51,30.57,11.85,34.18l15.6-20.69A25.89,25.89,0,0,1,37.51,30.57Z"
    />
    <g id="Crust">
      <path
        class="cls-7"
        d="M31.41,23.07A25.53,25.53,0,0,1,34.46,31l3-.43A25.89,25.89,0,0,0,27.45,13.49l-2,2.66A25.5,25.5,0,0,1,31.41,23.07Z"
      />
    </g>
    <g class="cls-8">
      <circle class="cls-2" cx="26.26" cy="23.07" r="2.45" />
      <circle class="cls-2" cx="29.02" cy="30.94" r="2.45" />
      <circle class="cls-2" cx="15.6" cy="29.52" r="2.45" />
      <circle class="cls-2" cx="22.08" cy="28.61" r="2.45" />
    </g>
  </g>
  <text class="cls-9" transform="translate(44.15 22.46)">
    SOPRANOS
    <tspan x="0" y="9.6">PIZZA</tspan>
  </text>
</svg>
